<svg xmlns="http://www.w3.org/2000/svg" viewBox="0 0 512 512"><path d="M0 256c0 110.07 69.472 203.905 166.955 240.076L189.217 256 166.955 15.922C69.472 52.095 0 145.93 0 256z" fill="#6DA544"/><path d="M512 256C512 114.616 397.384 0 256 0c-31.314 0-61.31 5.633-89.045 15.923v480.154C194.69 506.367 224.685 512 256 512c141.384 0 256-114.616 256-256z" fill="#D80027"/><circle cx="166.957" cy="256" r="89.043" fill="#FFDA44"/><path d="M116.87 211.478v55.652c0 27.662 22.424 50.087 50.087 50.087s50.087-22.424 50.087-50.087v-55.652H116.87z" fill="#D80027"/><path d="M166.957 283.826c-9.206 0-16.696-7.49-16.696-16.696v-22.26h33.392v22.26c0 9.206-7.49 16.696-16.695 16.696z" fill="#F0F0F0"/></svg>