<svg xmlns="http://www.w3.org/2000/svg" viewBox="0 0 58 58"><circle cx="29" cy="29" r="29" fill="#fbce9d"/><path d="M43.993 37.703c.004-.135.006-.271.007-.405.005-1.052-.495-2.022-1.239-2.765-1.245-1.243-1.678-3.17-1.298-4.89.194-.879-.007-1.794-.452-2.577-2.198-3.868-5.215-7.903-7.674-10.962a5.55 5.55 0 0 0-8.659-.003c-2.485 3.088-5.539 7.176-7.741 11.095-.437.777-.533 1.673-.387 2.552.279 1.681-.2 3.51-1.438 4.68a3.545 3.545 0 0 0-1.089 2.508l-.002.179c-.008 1.28.582 2.542 1.647 3.251 1.682 1.121 2.345 3.278 1.992 5.219a3.703 3.703 0 0 0 .784 3.025C20.8 51.443 24.219 54.267 29.01 57c5.142-2.933 8.708-5.97 11.071-9.012.639-.823.985-1.868.856-2.902-.208-1.666.319-3.439 1.581-4.552.835-.736 1.442-1.718 1.475-2.831z" fill="#f98d85"/><path d="M24.679 16.101c2.228-2.769 6.432-2.767 8.658.003 1.515 1.884 3.24 4.14 4.856 6.498C38.912 10.427 29.011 1 29.011 1s-9.896 9.422-9.183 21.593a106.439 106.439 0 0 1 4.851-6.492z" fill="#ea6248"/><path d="M31.853 14.812A4 4 0 1 0 25.011 12c0 1.095.442 2.086 1.155 2.808a5.564 5.564 0 0 1 5.687.004z" fill="#c64646"/><path d="M29.011 18s-20.75 19.75 0 39c20.75-19.25 0-39 0-39z" fill="#ea6248"/><path d="M31.171 48.395l-.956 1.148a1.58 1.58 0 0 1-2.429 0l-.956-1.148A12.203 12.203 0 0 1 24 40.581V35.16A3.16 3.16 0 0 1 27.16 32h3.681a3.16 3.16 0 0 1 3.16 3.16v5.421a12.214 12.214 0 0 1-2.83 7.814z" fill="#bf5a45"/><path d="M29 40c-2.109 0-3.91 1.438-4.644 3.471a12.195 12.195 0 0 0 2.473 4.924l.956 1.148a1.58 1.58 0 0 0 2.429 0l.956-1.148a12.195 12.195 0 0 0 2.473-4.924C32.91 41.438 31.109 40 29 40z" fill="#f98d85"/></svg>