<svg xmlns="http://www.w3.org/2000/svg" viewBox="0 0 512 512"><circle cx="256" cy="256" r="256" fill="#F0F0F0"/><g fill="#0052B4"><path d="M52.92 100.142c-20.11 26.163-35.272 56.318-44.1 89.077h133.177L52.92 100.14zM503.18 189.22c-8.828-32.76-23.992-62.914-44.1-89.077l-89.075 89.076H503.18zM8.82 322.784c8.83 32.758 23.992 62.913 44.1 89.075l89.074-89.076H8.82zM411.858 52.92c-26.163-20.108-56.317-35.27-89.076-44.1v133.176l89.076-89.075zM100.142 459.08c26.163 20.108 56.318 35.27 89.076 44.1V370.006l-89.076 89.074zM189.217 8.82c-32.758 8.83-62.913 23.992-89.075 44.1l89.075 89.075V8.82zM322.783 503.18c32.758-8.83 62.913-23.992 89.075-44.1l-89.075-89.075V503.18zM370.005 322.784l89.075 89.076c20.108-26.162 35.272-56.318 44.1-89.076H370.006z"/></g><g fill="#D80027"><path d="M509.833 222.61h-220.44V2.166C278.46.744 267.316 0 256 0c-11.32 0-22.46.744-33.39 2.167v220.44H2.166C.744 233.54 0 244.684 0 256c0 11.32.744 22.46 2.167 33.39h220.44v220.443C233.54 511.256 244.682 512 256 512c11.317 0 22.46-.743 33.39-2.167v-220.44h220.443C511.256 278.46 512 267.318 512 256c0-11.317-.744-22.46-2.167-33.39z"/><path d="M322.783 322.784L437.02 437.02c5.253-5.252 10.265-10.743 15.047-16.435l-97.802-97.802h-31.482zM189.217 322.784h-.002L74.98 437.02c5.252 5.253 10.743 10.265 16.435 15.047l97.802-97.804v-31.48zM189.217 189.22v-.003L74.98 74.98c-5.253 5.252-10.265 10.743-15.047 16.435l97.803 97.803h31.48zM322.783 189.22L437.02 74.98c-5.252-5.253-10.743-10.265-16.435-15.046l-97.802 97.803v31.482z"/></g></svg>